<svg width="35" height="35" viewBox="0 0 35 35" fill="none" xmlns="http://www.w3.org/2000/svg">
<path fill-rule="evenodd" clip-rule="evenodd" d="M2.1875 17.5C2.1875 17.21 2.30273 16.9318 2.50785 16.7266C2.71297 16.5215 2.99117 16.4063 3.28125 16.4063H29.0784L22.1944 9.52441C21.989 9.31904 21.8736 9.04049 21.8736 8.75004C21.8736 8.45959 21.989 8.18104 22.1944 7.97566C22.3998 7.77029 22.6783 7.65491 22.9688 7.65491C23.2592 7.65491 23.5377 7.77029 23.7431 7.97566L32.4931 16.7257C32.595 16.8273 32.6758 16.948 32.7309 17.0808C32.7861 17.2137 32.8145 17.3562 32.8145 17.5C32.8145 17.6439 32.7861 17.7864 32.7309 17.9192C32.6758 18.0521 32.595 18.1728 32.4931 18.2744L23.7431 27.0244C23.5377 27.2298 23.2592 27.3452 22.9688 27.3452C22.6783 27.3452 22.3998 27.2298 22.1944 27.0244C21.989 26.819 21.8736 26.5405 21.8736 26.25C21.8736 25.9596 21.989 25.681 22.1944 25.4757L29.0784 18.5938H3.28125C2.99117 18.5938 2.71297 18.4786 2.50785 18.2734C2.30273 18.0683 2.1875 17.7901 2.1875 17.5Z" fill="#FDF7FF"/>
</svg>
